# AST/ASF file generated using VICON BodyLanguage
# -----------------------------------------------
:version 1.10
:name VICON
:units
  mass 1.0
  length 0.45
  angle deg
:documentation
   .ast/.asf automatically generated from VICON data using
   VICON BodyBuilder and BodyLanguage model FoxedUp or BRILLIANT.MOD
:root
   order TX TY TZ RX RY RZ
   axis XYZ
   position 0 0 0  
   orientation 0 0 0 
:bonedata
  begin
     id 1 
     name lhipjoint
     direction 0.623415 -0.642378 0.445763 
     length 2.49859 
     axis 0 0 0  XYZ
  end
  begin
     id 2 
     name lfemur
     direction 0.34202 -0.939693 0  
     length 6.69689  
     axis 0 0 20  XYZ
    dof rx ry rz
    limits (-160.0 20.0)
           (-70.0 70.0)
           (-60.0 70.0)
  end
  begin
     id 3 
     name ltibia
     direction 0.34202 -0.939693 0   
     length 7.37574   
     axis 0 0 20   XYZ
    dof rx
    limits (-10.0 170.0)
  end
  begin
     id 4 
     name lfoot
     direction 0.084323 -0.231675 0.969132   
     length 2.09111   
     axis -90 7.62852e-016 20   XYZ
    dof rx rz
    limits (-45.0 90.0)
           (-70.0 20.0)
  end
  begin
     id 5 
     name ltoes
     direction 1.5357e-011 -4.21957e-011 1   
     length 1.04989   
     axis -90 7.62852e-016 20   XYZ
    dof rx
    limits (-90.0 20.0)
  end
  begin
     id 6 
     name rhipjoint
     direction -0.605402 -0.653903 0.45376   
     length 2.45455  
     axis 0 0 0  XYZ 
  end
  begin
     id 7 
     name rfemur
     direction -0.34202 -0.939693 0   
     length 6.64523   
     axis 0 0 -20   XYZ
    dof rx ry rz
    limits (-160.0 20.0)
           (-70.0 70.0)
           (-70.0 60.0)
  end
  begin
     id 8 
     name rtibia
     direction -0.34202 -0.939693 0   
     length 7.3339   
     axis 0 0 -20   XYZ
    dof rx
    limits (-10.0 170.0)
 end
 begin
     id 9 
     name rfoot
     direction -0.120854 -0.332043 0.93549   
     length 2.23135  
     axis -90 -7.62852e-016 -20   XYZ
    dof rx rz
    limits (-45.0 90.0)
           (-20.0 70.0)
  end
  begin
     id 10 
     name rtoes
     direction -1.53563e-011 -4.21914e-011 1   
     length 1.10614   
     axis -90 -7.62852e-016 -20   XYZ
    dof rx
    limits (-90.0 20.0)
  end
  begin
     id 11 
     name lowerback
     direction 0.0319682 0.998615 -0.0417941   
     length 2.02718   
     axis 0 0 0   XYZ
    dof rx ry rz
    limits (-20.0 45.0)
           (-30.0 30.0)
           (-30.0 30.0)
  end
  begin
     id 12 
     name upperback
     direction 7.63181e-005 0.995808 0.0914691   
     length 1.97539   
     axis 0 0 0   XYZ
    dof rx ry rz
    limits (-20.0 45.0)
           (-30.0 30.0)
           (-30.0 30.0)
  end
  begin
     id 13 
     name thorax
     direction -0.016423 0.993627 0.111514   
     length 2.00349   
     axis 0 0 0   XYZ
    dof rx ry rz
    limits (-20.0 45.0)
           (-30.0 30.0)
           (-30.0 30.0)
  end
  begin
     id 14 
     name lowerneck
     direction -0.174763 0.981668 -0.0760716   
     length 1.71436   
     axis 0 0 0   XYZ
    dof rx ry rz
    limits (-20.0 45.0)
           (-30.0 30.0)
           (-30.0 30.0)
  end
  begin
     id 15 
     name upperneck
     direction 0.345458 0.934587 -0.0848868   
     length 1.72805   
     axis 0 0 0   XYZ
    dof rx ry rz
    limits (-20.0 45.0)
           (-30.0 30.0)
           (-30.0 30.0)
  end
  begin
     id 16
     name head
     direction 0.13001 0.989848 -0.0574291  
     length 1.767  
     axis 0 0 0   XYZ
    dof rx ry rz
    limits (-20.0 45.0)
           (-30.0 30.0)
           (-30.0 30.0)
  end
  begin
     id 17 
     name lclavicle
     direction 0.952951 0.290122 0.0878234  
     length 3.54654  
     axis 0 0 0   XYZ
    dof ry rz
    limits (-20.0 10.0)
           (0.0 20.0)
  end
  begin
     id 18 
     name lhumerus
     direction 1 -4.48957e-011 -4.56525e-028   
     length 5.19807   
     axis 180 -30 -90   XYZ
    dof rx ry rz
    limits (-60.0 90.0)
           (-90.0 90.0)
           (-90.0 90.0)
  end
  begin
     id 19
     name lradius
     direction 1 -4.48979e-011 -2.0317e-027   
     length 3.0937   
     axis 180 -30 -90   XYZ
    dof rx
    limits (-10.0 170.0)
  end
  begin
     id 20
     name lwrist
     direction 1 -4.48953e-011 -3.05809e-027   
     length 1.54685   
     axis 8.48514e-016 90 90   XYZ
    dof ry
    limits (-180.0 0.0)
 end
  begin
     id 21 
     name lhand
     direction 1 -4.48952e-011 -6.11639e-027   
     length 0.672632   
     axis 3.9013e-015 90 90   XYZ
    dof rx rz
    limits (-90.0 90.0)
           (-45.0 45.0)
  end
  begin
     id 22 
     name lfingers
     direction 1 -4.48925e-011 -1.22426e-026   
     length 0.542293   
     axis 7.80276e-015 90 90   XYZ
    dof rx
    limits (0.0 90.0)
  end
  begin
     id 23
     name lthumb
     direction 0.707107 -6.3486e-011 0.707107   
     length 0.778628   
     axis -90 45 5.37419e-014   XYZ
    dof rx rz
    limits (-45.0 45.0)
           (-45.0 45.0)
  end
  begin
     id 24 
     name rclavicle
     direction -0.960732 0.273675 -0.0457849   
     length 3.52079  
     axis 0 0 0   XYZ 
    dof ry rz
    limits (-10.0 20.0)
           (-20.0 0.0)
  end
  begin
     id 25 
     name rhumerus
     direction -1 -4.48976e-011 -1.63613e-027  
     length 5.45222   
     axis 180 30 90   XYZ
    dof rx ry rz
    limits (-90.0 60.0)
           (-90.0 90.0)
           (-90.0 90.0)
  end
  begin
     id 26 
     name rradius
     direction -1 -4.48957e-011 -7.00033e-028   
     length 3.01284   
     axis 180 30 90   XYZ
    dof rx
    limits (-10.0 170.0)
  end
  begin
     id 27 
     name rwrist
     direction -1 -4.48983e-011 -3.05543e-027   
     length 1.50642   
     axis 8.48514e-016 -90 -90   XYZ
    dof ry
    limits (-180.0 0.0)
  end
  begin
     id 28
     name rhand
     direction -1 -4.48984e-011 -6.11072e-027   
     length 0.622296   
     axis 3.9013e-015 -90 -90   XYZ
    dof rx rz
    limits (-90.0 90.0)
           (-45.0 45.0)
  end
  begin
     id 29
     name rfingers
     direction -1 -4.48865e-011 -1.22637e-026   
     length 0.501711   
     axis 7.80276e-015 -90 -90   XYZ
    dof rx
    limits (0.0 90.0)
  end
  begin
     id 30
     name rthumb
     direction -0.707107 -6.34932e-011 0.707107   
     length 0.72036   
     axis -90 -45 -5.37419e-014   XYZ
    dof rx rz
    limits (-45.0 45.0)
           (-45.0 45.0)
  end
:hierarchy
  begin
    root lhipjoint rhipjoint lowerback
    lhipjoint lfemur
    lfemur ltibia
    ltibia lfoot
    lfoot ltoes
    rhipjoint rfemur
    rfemur rtibia
    rtibia rfoot
    rfoot rtoes
    lowerback upperback
    upperback thorax
    thorax lowerneck lclavicle rclavicle
    lowerneck upperneck
    upperneck head
    lclavicle lhumerus
    lhumerus lradius
    lradius lwrist
    lwrist lhand lthumb
    lhand lfingers
    rclavicle rhumerus
    rhumerus rradius
    rradius rwrist
    rwrist rhand rthumb
    rhand rfingers
  end

#!OML:ASF H:\Not Pregnant\Project 1\Capture day 1\Session 1\non-pregnant.ASF
:FULLY-SPECIFIED
:DEGREES
832
root 13.1968 16.4292 -15.9947 80.4787 -86.8769 292.317
lowerback -0.775467 -1.63723 -3.29554
upperback -7.29071 -2.47089 0.759715
thorax -7.00215 -1.0845 2.77592
lowerneck 14.9407 -8.2968 -31.4025
upperneck 2.49845 -19.4229 38.1023
head 5.75043 -11.7 18.9608
rclavicle -2.26118e-015 1.19271e-015
rhumerus -52.3983 -22.9327 -56.3271
rradius 25.4045
rwrist 27.8316
rhand -8.13841 -2.02649
rfingers 7.12502
rthumb 17.7757 -31.234
lclavicle -2.26118e-015 1.19271e-015
lhumerus -44.985 -12.631 96.1176
lradius 32.5347
lwrist 34.7072
lhand -12.1977 -9.99827
lfingers 7.12502
lthumb 13.8665 19.5195
rfemur -43.4477 -2.78293 26.4024
rtibia 35.6327
rfoot -2.71413 21.1546
rtoes -3.48946
lfemur -4.41972 -5.77182 -21.2815
ltibia 15.3883
lfoot 22.7543 -44.2255
ltoes 51.494
833
root 13.0808 16.4139 -16.0209 76.3892 -86.7797 296.326
lowerback -0.882232 -1.5813 -3.14251
upperback -7.34323 -2.39482 0.694265
thorax -7.0097 -1.05908 2.61578
lowerneck 14.9901 -8.33119 -31.4805
upperneck 2.55373 -19.4981 38.0117
head 5.78356 -11.7347 18.9145
rclavicle 9.16894e-015 5.1684e-015
rhumerus -52.2611 -22.7989 -56.7411
rradius 25.564
rwrist 27.5198
rhand -8.12328 -1.98651
rfingers 7.12502
rthumb 17.7902 -31.1927
lclavicle 9.16894e-015 5.1684e-015
lhumerus -45.241 -11.988 95.5514
lradius 32.704
lwrist 34.8083
lhand -12.1152 -10.0123
lfingers 7.12502
lthumb 13.946 19.4999
rfemur -43.0041 -2.56208 26.4026
rtibia 35.9737
rfoot -3.84156 20.6391
rtoes -2.54424
lfemur -3.79294 -5.80319 -21.1713
ltibia 15.207
lfoot 23.6807 -43.9123
ltoes 51.6284
834
root 12.9645 16.4008 -16.0467 73.0063 -86.6219 299.644
lowerback -1.00268 -1.52524 -2.94677
upperback -7.39939 -2.31663 0.64417
thorax -7.01356 -1.035 2.44752
lowerneck 15.0355 -8.36512 -31.5291
upperneck 2.60844 -19.5647 37.9144
head 5.80872 -11.7638 18.8594
rclavicle -3.12837e-014 1.27222e-014
rhumerus -52.0973 -22.6682 -57.1827
rradius 25.7376
rwrist 27.1763
rhand -8.10813 -1.95341
rfingers 7.12502
rthumb 17.8048 -31.1583
lclavicle -3.12837e-014 1.27222e-014
lhumerus -45.5115 -11.3682 94.9685
lradius 32.9029
lwrist 35.0497
lhand -12.0826 -10.0069
lfingers 7.12502
lthumb 13.9774 19.5032
rfemur -42.5653 -2.32861 26.4602
rtibia 36.2941
rfoot -4.94497 20.0999
rtoes -1.88555
lfemur -3.23582 -5.86106 -20.9969
ltibia 15.1151
lfoot 24.6513 -43.5321
ltoes 51.7558
835
root 12.8471 16.3888 -16.0708 70.6845 -86.4296 301.9
lowerback -1.13828 -1.4636 -2.70387
upperback -7.45272 -2.22871 0.60743
thorax -7.00644 -1.00892 2.26604
lowerneck 15.0721 -8.3958 -31.56
upperneck 2.67163 -19.6213 37.8081
head 5.82987 -11.7863 18.7973
rclavicle 7.37988e-015 -6.36111e-015
rhumerus -51.898 -22.5306 -57.6437
rradius 25.9193
rwrist 26.8221
rhand -8.06864 -1.91728
rfingers 7.12502
rthumb 17.8428 -31.1187
lclavicle 7.37988e-015 -6.36111e-015
lhumerus -45.8105 -10.7978 94.3931
lradius 33.1449
lwrist 35.4353
lhand -12.1509 -9.98632
lfingers 7.12502
lthumb 13.9116 19.5283
rfemur -42.1208 -2.07218 26.5576
rtibia 36.6121
rfoot -6.00653 19.5451
rtoes -1.42864
lfemur -2.73622 -5.9821 -20.7912
ltibia 15.1313
lfoot 25.5357 -43.0802
ltoes 51.8386
836
root 12.7297 16.3781 -16.0939 69.1926 -86.2232 303.34
lowerback -1.28454 -1.4006 -2.43335
upperback -7.51106 -2.13853 0.580175
thorax -6.99846 -0.983354 2.07898
lowerneck 15.0963 -8.42006 -31.5854
upperneck 2.74972 -19.6677 37.6981
head 5.85194 -11.8026 18.7345
rclavicle 1.08835e-014 2.06736e-014
rhumerus -51.6582 -22.3834 -58.1298
rradius 26.1
rwrist 26.4696
rhand -8.0417 -1.88488
rfingers 7.12502
rthumb 17.8687 -31.084
lclavicle 1.08835e-014 2.06736e-014
lhumerus -46.1022 -10.188 93.774
lradius 33.3713
lwrist 35.8501
lhand -12.3233 -9.99194
lfingers 7.12502
lthumb 13.7454 19.534
rfemur -41.6985 -1.78721 26.6777
rtibia 36.9398
rfoot -6.99282 18.9919
rtoes -1.08086
lfemur -2.33437 -6.1113 -20.5634
ltibia 15.2863
lfoot 26.459 -42.5686
ltoes 51.9096
837
root 12.6117 16.3683 -16.115 68.7816 -86.0157 303.701
lowerback -1.44427 -1.32012 -2.12408
upperback -7.56878 -2.02385 0.563294
thorax -6.98315 -0.947972 1.87989
lowerneck 15.1185 -8.43737 -31.6233
upperneck 2.83758 -19.7095 37.5935
head 5.8778 -11.8176 18.6794
rclavicle -4.47266e-016 -7.95139e-016
rhumerus -51.3831 -22.2261 -58.6251
rradius 26.2783
rwrist 26.1239
rhand -8.02323 -1.85938
rfingers 7.12502
rthumb 17.8865 -31.0568
lclavicle -4.47266e-016 -7.95139e-016
lhumerus -46.3839 -9.55126 93.142
lradius 33.5704
lwrist 36.2577
lhand -12.5994 -10.0287
lfingers 7.12502
lthumb 13.4793 19.5151
rfemur -41.2877 -1.4506 26.8156
rtibia 37.2746
rfoot -7.88951 18.4581
rtoes -0.820121
lfemur -2.02573 -6.28466 -20.3247
ltibia 15.6055
lfoot 27.2947 -41.9933
ltoes 51.9387
838
root 12.4945 16.3588 -16.1351 69.0196 -85.8183 303.417
lowerback -1.60147 -1.22738 -1.8059
upperback -7.62981 -1.89351 0.551292
thorax -6.97261 -0.905277 1.68079
lowerneck 15.149 -8.44627 -31.6656
upperneck 2.92892 -19.7462 37.4992
head 5.90319 -11.8322 18.6342
rclavicle 8.99501e-015 -1.03368e-014
rhumerus -51.0782 -22.0708 -59.1246
rradius 26.4475
rwrist 25.8078
rhand -8.02819 -1.83366
rfingers 7.12502
rthumb 17.8817 -31.0316
lclavicle 8.99501e-015 -1.03368e-014
lhumerus -46.6381 -8.8584 92.4669
lradius 33.7079
lwrist 36.5722
lhand -12.9499 -10.1181
lfingers 7.12502
lthumb 13.1415 19.4478
rfemur -40.89 -1.07525 26.9604
rtibia 37.607
rfoot -8.70452 17.943
rtoes -0.636486
lfemur -1.83416 -6.43724 -20.0801
ltibia 16.1102
lfoot 28.1915 -41.3656
ltoes 51.9651
839
root 12.3783 16.3499 -16.1543 69.9188 -85.6443 302.469
lowerback -1.75468 -1.12102 -1.49452
upperback -7.68744 -1.74559 0.545384
thorax -6.95979 -0.853297 1.49156
lowerneck 15.1719 -8.44673 -31.7292
upperneck 3.03138 -19.78 37.4243
head 5.93805 -11.8473 18.6059
rclavicle -1.28713e-014 1.35174e-014
rhumerus -50.7324 -21.9154 -59.6311
rradius 26.6072
rwrist 25.533
rhand -8.06042 -1.80528
rfingers 7.12502
rthumb 17.8507 -31.006
lclavicle -1.28713e-014 1.35174e-014
lhumerus -46.8515 -8.0832 91.7354
lradius 33.7733
lwrist 36.7499
lhand -13.2943 -10.228
lfingers 7.12502
lthumb 12.8095 19.359
rfemur -40.489 -0.652369 27.105
rtibia 37.9216
rfoot -9.45029 17.454
rtoes -0.462446
lfemur -1.75166 -6.54346 -19.8324
ltibia 16.8015
lfoot 29.1675 -40.6738
ltoes 51.9851
840
root 12.2633 16.3416 -16.1729 71.3072 -85.4937 301.028
lowerback -1.89993 -1.0031 -1.19476
upperback -7.7407 -1.58308 0.541725
thorax -6.94568 -0.793265 1.3111
lowerneck 15.1944 -8.44045 -31.7965
upperneck 3.13574 -19.8075 37.3607
head 5.97335 -11.8606 18.5868
rclavicle 1.19768e-014 -6.36111e-015
rhumerus -50.3526 -21.7598 -60.1478
rradius 26.7621
rwrist 25.2971
rhand -8.12114 -1.76989
rfingers 7.12502
rthumb 17.7923 -30.9759
lclavicle 1.19768e-014 -6.36111e-015
lhumerus -47.0296 -7.23396 90.9474
lradius 33.7744
lwrist 36.8082
lhand -13.6491 -10.3532
lfingers 7.12502
lthumb 12.4674 19.2549
rfemur -40.0784 -0.208754 27.2555
rtibia 38.2129
rfoot -10.1456 17.0092
rtoes -0.282374
lfemur -1.76918 -6.5698 -19.5795
ltibia 17.6604
lfoot 30.2881 -39.8962
ltoes 52.0218
